<?xml version="1.0" encoding="utf-8"?>
<!-- Generator: Adobe Illustrator 24.3.0, SVG Export Plug-In . SVG Version: 6.00 Build 0)  -->
<svg version="1.1" id="Laag_1" xmlns="http://www.w3.org/2000/svg" xmlns:xlink="http://www.w3.org/1999/xlink" x="0px" y="0px"
	 viewBox="0 0 275.2 71.3" style="enable-background:new 0 0 275.2 71.3;" xml:space="preserve">
<style type="text/css">
	.st0{fill:none;}
	.st1{fill:#ACB5DA;}
	.st2{fill:#818AB1;}
	.st3{opacity:0.7;}
	.st4{fill:#4F6694;}
	.st5{fill:#FFFFFF;}
</style>
<g id="Brand">
	<g id="Path_438">
		<path class="st0" d="M100.3,24.3h23v23h-23V24.3z"/>
		<path class="st1" d="M101.3,25.3v21h21v-21H101.3 M100.3,24.3h23v23h-23V24.3z"/>
	</g>
	<g id="LEARNHUB">
		<g>
			<path class="st2" d="M132.8,26.2v10.7c0.1,2.6,0.3,3.5,0.9,4.1s2.1,1.1,4.1,1.1h3.9v2.8h-4.4c-3.4,0-4.5-0.3-6.1-1.7
				c-1.3-1.3-1.8-2.7-1.8-6.1V26.2H132.8z"/>
			<path class="st2" d="M157.6,29h-5.3c-3.8-0.1-5.4,1.4-5.5,5.1h10.9v2.8h-10.9c0.2,3.6,1.9,5.2,5.5,5.2h5.3v2.8h-5.7
				c-3.3,0-5.4-0.6-6.7-2.2c-1.5-1.7-2.3-4-2.3-7c0-3.5,1-6.1,3.1-7.8c1.3-1.1,3-1.6,5.7-1.6h5.9V29z"/>
			<path class="st2" d="M166.9,26.2h4.3l7.5,18.7h-3.9l-1.8-4.6h-8.1l-1.9,4.6h-3.9L166.9,26.2z M165.8,37.4h6.2l-3.1-8L165.8,37.4z
				"/>
			<path class="st2" d="M184.2,44.9h-3.4V26.2h8.8c2.6,0,4.3,0.3,5.3,1c1.4,1,2.2,2.5,2.1,4.2c0,1.4-0.5,2.8-1.5,3.9
				c-0.6,0.6-1.4,1-2.3,1.3c2.3,0.8,3.3,2.3,3.4,5.5c0,1,0.1,2,0.5,2.9h-3.7c-0.1-0.3-0.2-0.5-0.2-0.8c0-0.2-0.1-0.5-0.1-1l-0.1-0.9
				c-0.3-3.7-1.8-4.9-5.8-4.9h-3V44.9z M189.6,34.5c0.9,0.1,1.8-0.1,2.6-0.5c0.7-0.5,1.1-1.4,1-2.3c0.1-1-0.4-1.9-1.3-2.4
				c-0.8-0.3-1.6-0.4-2.4-0.3h-5.4v5.5H189.6z"/>
			<path class="st2" d="M203.4,44.9h-3.3V26.2h4.3l8.6,14.5V26.2h3.3v18.7h-4.1l-8.7-14.4L203.4,44.9z"/>
			<path class="st2" d="M235.6,44.9h-3.4v-8h-8.7v8h-3.4V26.2h3.4V34h8.7v-7.8h3.4V44.9z"/>
			<path class="st2" d="M242.8,37.3c0,1.9,0.3,2.9,0.9,3.7c1,1,2.3,1.5,3.7,1.4c2,0,3.4-0.7,4.1-1.7c0.4-0.6,0.5-1.5,0.5-3.4v-11
				h3.4v10.9c0,3.2-0.4,4.7-1.7,5.9c-1.5,1.4-3.6,2.1-6.6,2.1s-5-0.8-6.3-2.3c-1.1-1.3-1.5-2.7-1.5-5.4V26.2h3.4L242.8,37.3z"/>
			<path class="st2" d="M259.1,26.2h9.7c1.5-0.1,3.1,0.2,4.4,1c1.2,0.9,1.9,2.3,1.8,3.8c0.1,1.9-1.1,3.6-2.8,4.4
				c1.9,0.6,3.1,2.4,3,4.3c0.1,1.8-0.8,3.4-2.3,4.3c-1.5,0.7-3.1,0.9-4.7,0.8h-9.1V26.2z M268.2,34c0.8,0.1,1.6-0.1,2.2-0.5
				c0.6-0.5,1-1.3,0.9-2.1c0-0.7-0.3-1.4-0.8-1.9c-0.7-0.5-1.5-0.7-2.3-0.5h-5.7v5H268.2z M268.1,42c2.3,0,3.4-0.9,3.4-2.7
				s-1-2.5-3.2-2.5h-5.7V42H268.1z"/>
		</g>
	</g>
	<path id="Path_1074" class="st1" d="M107.2,34v5.8h1.4V34H107.2z M107.2,33.2h1.4v-1.4h-1.4V33.2z M109.8,39.9h3.3
		c0.8,0.1,1.5,0,2.2-0.4c0.6-0.4,1-1.1,1-1.8c0.1-0.9-0.5-1.6-1.3-1.9c0.8-0.2,1.3-1,1.3-1.8s-0.5-1.6-1.2-1.9
		c-0.6-0.2-1.2-0.3-1.8-0.3h-3.6V33h3.4c0.3,0,0.7,0,1,0.2s0.5,0.5,0.5,0.9c0,0.3-0.1,0.7-0.4,0.9c-0.2,0.2-0.5,0.2-1.2,0.2h-2.6
		v1.2h2.5c0.4,0,0.8,0,1.2,0.2c0.3,0.2,0.5,0.6,0.5,1c0,0.3-0.1,0.6-0.4,0.8c-0.4,0.2-0.8,0.3-1.2,0.3h-3.3L109.8,39.9z"/>
</g>
<g id="Laag_5">
	<g id="Group_568">
		<g id="Path_383" class="st3">
			<path class="st1" d="M57.6,57.8H29.9L57.6,30V57.8z M37.1,54.8h17.5V37.3L37.1,54.8z"/>
		</g>
		<g id="Path_385" class="st3">
			<rect x="39.2" y="62.8" class="st1" width="2.5" height="5.5"/>
		</g>
		<g class="st3">
			<path class="st1" d="M0.9,71.3h69.3V2.1L0.9,71.3z M67.2,68.3h-59l59-59V68.3z"/>
			<rect x="23.8" y="62.8" class="st1" width="2.5" height="5.5"/>
			<rect x="54.6" y="62.8" class="st1" width="2.5" height="5.5"/>
		</g>
	</g>
</g>
<g id="Laag_6">
	<path id="Rectangle_959" class="st4" d="M10,0h33c5.5,0,10,4.5,10,10v33c0,5.5-4.5,10-10,10H10C4.5,53,0,48.5,0,43V10
		C0,4.5,4.5,0,10,0z"/>
	<path id="Path_1073" class="st5" d="M16.9,11.3v17.3c0,5.3,0.8,7.7,2.9,9.7c2.4,2.1,4.3,2.6,9.7,2.7h7v-4.5h-6.2
		c-3.1,0-5.3-0.5-6.5-1.7c-1-1-1.3-2.3-1.4-6.5v-17L16.9,11.3z"/>
</g>
</svg>
